<?xml version="1.0" encoding="utf-8" standalone="no"?>
<!DOCTYPE svg PUBLIC "-//W3C//DTD SVG 1.1//EN"
  "http://www.w3.org/Graphics/SVG/1.1/DTD/svg11.dtd">
<svg xmlns:xlink="http://www.w3.org/1999/xlink" width="506.430094pt" height="366.5pt" viewBox="0 0 506.430094 366.5" xmlns="http://www.w3.org/2000/svg" version="1.1">
 <metadata>
  <rdf:RDF xmlns:dc="http://purl.org/dc/elements/1.1/" xmlns:cc="http://creativecommons.org/ns#" xmlns:rdf="http://www.w3.org/1999/02/22-rdf-syntax-ns#">
   <cc:Work>
    <dc:type rdf:resource="http://purl.org/dc/dcmitype/StillImage"/>
    <dc:date>2026-05-19T16:23:38.480794</dc:date>
    <dc:format>image/svg+xml</dc:format>
    <dc:creator>
     <cc:Agent>
      <dc:title>Matplotlib v3.9.4, https://matplotlib.org/</dc:title>
     </cc:Agent>
    </dc:creator>
   </cc:Work>
  </rdf:RDF>
 </metadata>
 <defs>
  <style type="text/css">*{stroke-linejoin: round; stroke-linecap: butt}</style>
 </defs>
 <g id="figure_1">
  <g id="patch_1">
   <path d="M 0 366.5 
L 506.430094 366.5 
L 506.430094 0 
L 0 0 
z
" style="fill: #ffffff"/>
  </g>
  <g id="axes_1">
   <g id="patch_2">
    <path d="M 40.446094 91.341391 
L 499.230094 91.341391 
L 499.230094 28.584 
L 40.446094 28.584 
z
" style="fill: #ffffff"/>
   </g>
   <g id="line2d_1">
    <path d="M 40.446094 81.909645 
L 499.230094 81.909645 
" clip-path="url(#p2da2271724)" style="fill: none; stroke-dasharray: 1.1,4.95; stroke-dashoffset: 0; stroke: #d6d6d6; stroke-width: 0.55"/>
   </g>
   <g id="line2d_2">
    <path d="M 40.446094 68.124784 
L 499.230094 68.124784 
" clip-path="url(#p2da2271724)" style="fill: none; stroke-dasharray: 1.1,4.95; stroke-dashoffset: 0; stroke: #d6d6d6; stroke-width: 0.55"/>
   </g>
   <g id="line2d_3">
    <path d="M 40.446094 54.339924 
L 499.230094 54.339924 
" clip-path="url(#p2da2271724)" style="fill: none; stroke-dasharray: 1.1,4.95; stroke-dashoffset: 0; stroke: #d6d6d6; stroke-width: 0.55"/>
   </g>
   <g id="line2d_4">
    <path d="M 40.446094 40.555063 
L 499.230094 40.555063 
" clip-path="url(#p2da2271724)" style="fill: none; stroke-dasharray: 1.1,4.95; stroke-dashoffset: 0; stroke: #d6d6d6; stroke-width: 0.55"/>
   </g>
   <g id="line2d_5">
    <path d="M 40.446094 47.447493 
L 499.230094 47.447493 
" clip-path="url(#p2da2271724)" style="fill: none; stroke-dasharray: 6,6; stroke-dashoffset: 0; stroke: #bcbcbc"/>
   </g>
   <g id="line2d_6">
    <path d="M 40.446094 61.232354 
L 499.230094 61.232354 
" clip-path="url(#p2da2271724)" style="fill: none; stroke-dasharray: 6,6; stroke-dashoffset: 0; stroke: #bcbcbc"/>
   </g>
   <g id="line2d_7">
    <path d="M 40.446094 75.017214 
L 499.230094 75.017214 
" clip-path="url(#p2da2271724)" style="fill: none; stroke-dasharray: 6,6; stroke-dashoffset: 0; stroke: #bcbcbc"/>
   </g>
   <g id="line2d_8">
    <path d="M 40.446094 33.662633 
L 499.230094 33.662633 
" clip-path="url(#p2da2271724)" style="fill: none; stroke: #000000; stroke-width: 1.45; stroke-linecap: square"/>
   </g>
   <g id="line2d_9">
    <path d="M 40.446094 88.802075 
L 499.230094 88.802075 
" clip-path="url(#p2da2271724)" style="fill: none; stroke: #000000; stroke-width: 1.45; stroke-linecap: square"/>
   </g>
   <g id="matplotlib.axis_1">
    <g id="xtick_1">
     <g id="line2d_10">
      <path d="M 56.403798 91.341391 
L 56.403798 28.584 
" clip-path="url(#p2da2271724)" style="fill: none; stroke: #dddddd; stroke-opacity: 0.8; stroke-width: 0.55; stroke-linecap: square"/>
     </g>
     <g id="line2d_11">
      <defs>
       <path id="m0bee2536da" d="M 0 0 
L 0 2.8 
" style="stroke: #000000; stroke-width: 0.6"/>
      </defs>
      <g>
       <use xlink:href="#m0bee2536da" x="56.403798" y="91.341391" style="stroke: #000000; stroke-width: 0.6"/>
      </g>
     </g>
    </g>
    <g id="xtick_2">
     <g id="line2d_12">
      <path d="M 156.13945 91.341391 
L 156.13945 28.584 
" clip-path="url(#p2da2271724)" style="fill: none; stroke: #dddddd; stroke-opacity: 0.8; stroke-width: 0.55; stroke-linecap: square"/>
     </g>
     <g id="line2d_13">
      <g>
       <use xlink:href="#m0bee2536da" x="156.13945" y="91.341391" style="stroke: #000000; stroke-width: 0.6"/>
      </g>
     </g>
    </g>
    <g id="xtick_3">
     <g id="line2d_14">
      <path d="M 255.875102 91.341391 
L 255.875102 28.584 
" clip-path="url(#p2da2271724)" style="fill: none; stroke: #dddddd; stroke-opacity: 0.8; stroke-width: 0.55; stroke-linecap: square"/>
     </g>
     <g id="line2d_15">
      <g>
       <use xlink:href="#m0bee2536da" x="255.875102" y="91.341391" style="stroke: #000000; stroke-width: 0.6"/>
      </g>
     </g>
    </g>
    <g id="xtick_4">
     <g id="line2d_16">
      <path d="M 355.610755 91.341391 
L 355.610755 28.584 
" clip-path="url(#p2da2271724)" style="fill: none; stroke: #dddddd; stroke-opacity: 0.8; stroke-width: 0.55; stroke-linecap: square"/>
     </g>
     <g id="line2d_17">
      <g>
       <use xlink:href="#m0bee2536da" x="355.610755" y="91.341391" style="stroke: #000000; stroke-width: 0.6"/>
      </g>
     </g>
    </g>
    <g id="xtick_5">
     <g id="line2d_18">
      <path d="M 455.346407 91.341391 
L 455.346407 28.584 
" clip-path="url(#p2da2271724)" style="fill: none; stroke: #dddddd; stroke-opacity: 0.8; stroke-width: 0.55; stroke-linecap: square"/>
     </g>
     <g id="line2d_19">
      <g>
       <use xlink:href="#m0bee2536da" x="455.346407" y="91.341391" style="stroke: #000000; stroke-width: 0.6"/>
      </g>
     </g>
    </g>
   </g>
   <g id="matplotlib.axis_2">
    <g id="ytick_1">
     <g id="line2d_20">
      <defs>
       <path id="me11f80140e" d="M 0 0 
L -2.8 0 
" style="stroke: #000000; stroke-width: 0.6"/>
      </defs>
      <g>
       <use xlink:href="#me11f80140e" x="40.446094" y="88.439315" style="stroke: #000000; stroke-width: 0.6"/>
      </g>
     </g>
     <g id="text_1">
      <text style="font: 9px 'DejaVu Sans'; text-anchor: end" x="34.146094" y="91.858612" transform="rotate(-0 34.146094 91.858612)">−5</text>
     </g>
    </g>
    <g id="ytick_2">
     <g id="line2d_21">
      <g>
       <use xlink:href="#me11f80140e" x="40.446094" y="70.301341" style="stroke: #000000; stroke-width: 0.6"/>
      </g>
     </g>
     <g id="text_2">
      <text style="font: 9px 'DejaVu Sans'; text-anchor: end" x="34.146094" y="73.720638" transform="rotate(-0 34.146094 73.720638)">0</text>
     </g>
    </g>
    <g id="ytick_3">
     <g id="line2d_22">
      <g>
       <use xlink:href="#me11f80140e" x="40.446094" y="52.163367" style="stroke: #000000; stroke-width: 0.6"/>
      </g>
     </g>
     <g id="text_3">
      <text style="font: 9px 'DejaVu Sans'; text-anchor: end" x="34.146094" y="55.582664" transform="rotate(-0 34.146094 55.582664)">5</text>
     </g>
    </g>
    <g id="ytick_4">
     <g id="line2d_23">
      <g>
       <use xlink:href="#me11f80140e" x="40.446094" y="34.025392" style="stroke: #000000; stroke-width: 0.6"/>
      </g>
     </g>
     <g id="text_4">
      <text style="font: 9px 'DejaVu Sans'; text-anchor: end" x="34.146094" y="37.444689" transform="rotate(-0 34.146094 37.444689)">10</text>
     </g>
    </g>
    <g id="text_5">
     <text style="font: 10px 'DejaVu Sans'; text-anchor: middle" x="14.798438" y="59.962696" transform="rotate(-90 14.798438 59.962696)">y [m]</text>
    </g>
   </g>
   <g id="patch_3">
    <path d="M 128.632357 72.260242 
L 151.731134 72.260242 
Q 152.229813 72.260242 152.229813 71.353344 
L 152.229813 64.896225 
Q 152.229813 63.989326 151.731134 63.989326 
L 128.632357 63.989326 
Q 128.133679 63.989326 128.133679 64.896225 
L 128.133679 71.353344 
Q 128.133679 72.260242 128.632357 72.260242 
z
" clip-path="url(#p2da2271724)" style="fill: #7fc6a4; opacity: 0.7; stroke: #667078; stroke-width: 0.8; stroke-linejoin: miter"/>
   </g>
   <g id="patch_4">
    <path d="M 220.389157 86.045103 
L 243.487934 86.045103 
Q 243.986613 86.045103 243.986613 85.138204 
L 243.986613 78.681085 
Q 243.986613 77.774186 243.487934 77.774186 
L 220.389157 77.774186 
Q 219.890479 77.774186 219.890479 78.681085 
L 219.890479 85.138204 
Q 219.890479 86.045103 220.389157 86.045103 
z
" clip-path="url(#p2da2271724)" style="fill: #b39ddb; opacity: 0.7; stroke: #667078; stroke-width: 0.8; stroke-linejoin: miter"/>
   </g>
   <g id="patch_5">
    <path d="M 40.446094 91.341391 
L 40.446094 28.584 
" style="fill: none; stroke: #444444; stroke-width: 0.55; stroke-linejoin: miter; stroke-linecap: square"/>
   </g>
   <g id="patch_6">
    <path d="M 499.230094 91.341391 
L 499.230094 28.584 
" style="fill: none; stroke: #444444; stroke-width: 0.55; stroke-linejoin: miter; stroke-linecap: square"/>
   </g>
   <g id="patch_7">
    <path d="M 40.446094 91.341391 
L 499.230094 91.341391 
" style="fill: none; stroke: #444444; stroke-width: 0.55; stroke-linejoin: miter; stroke-linecap: square"/>
   </g>
   <g id="patch_8">
    <path d="M 40.446094 28.584 
L 499.230094 28.584 
" style="fill: none; stroke: #444444; stroke-width: 0.55; stroke-linejoin: miter; stroke-linecap: square"/>
   </g>
   <g id="text_6">
    <text style="fill: #1f1f1f; font: 9.5px 'DejaVu Sans'; text-anchor: middle" x="140.181746" y="70.74619" transform="rotate(-0 140.181746 70.74619)">4</text>
   </g>
   <g id="text_7">
    <text style="fill: #1f1f1f; font: 9.5px 'DejaVu Sans'; text-anchor: middle" x="231.938546" y="84.531051" transform="rotate(-0 231.938546 84.531051)">5</text>
   </g>
   <g id="patch_9">
    <path d="M 352.040218 58.475382 
L 375.138995 58.475382 
Q 375.637674 58.475382 375.637674 57.568483 
L 375.637674 51.111364 
Q 375.637674 50.204465 375.138995 50.204465 
L 352.040218 50.204465 
Q 351.54154 50.204465 351.54154 51.111364 
L 351.54154 57.568483 
Q 351.54154 58.475382 352.040218 58.475382 
z
" clip-path="url(#p2da2271724)" style="fill: #ffd22e; opacity: 0.82; stroke: #666666; stroke-width: 0.8; stroke-linejoin: miter"/>
   </g>
   <g id="patch_10">
    <path d="M 44.85441 86.045103 
L 67.953187 86.045103 
Q 68.451865 86.045103 68.451865 85.138204 
L 68.451865 78.681085 
Q 68.451865 77.774186 67.953187 77.774186 
L 44.85441 77.774186 
Q 44.355731 77.774186 44.355731 78.681085 
L 44.355731 85.138204 
Q 44.355731 86.045103 44.85441 86.045103 
z
" clip-path="url(#p2da2271724)" style="fill: #f29b72; opacity: 0.82; stroke: #666666; stroke-width: 0.8; stroke-linejoin: miter"/>
   </g>
   <g id="patch_11">
    <path d="M 160.547766 44.690521 
L 183.646543 44.690521 
Q 184.145221 44.690521 184.145221 43.783623 
L 184.145221 37.326504 
Q 184.145221 36.419605 183.646543 36.419605 
L 160.547766 36.419605 
Q 160.049088 36.419605 160.049088 37.326504 
L 160.049088 43.783623 
Q 160.049088 44.690521 160.547766 44.690521 
z
" clip-path="url(#p2da2271724)" style="fill: #45a9df; opacity: 0.82; stroke: #666666; stroke-width: 0.8; stroke-linejoin: miter"/>
   </g>
   <g id="patch_12">
    <path d="M 74.775105 58.475382 
L 97.873882 58.475382 
Q 98.372561 58.475382 98.372561 57.568483 
L 98.372561 51.111364 
Q 98.372561 50.204465 97.873882 50.204465 
L 74.775105 50.204465 
Q 74.276427 50.204465 74.276427 51.111364 
L 74.276427 57.568483 
Q 74.276427 58.475382 74.775105 58.475382 
z
" clip-path="url(#p2da2271724)" style="fill: #ec407a; opacity: 0.82; stroke: #666666; stroke-width: 0.8; stroke-linejoin: miter"/>
   </g>
   <g id="text_8">
    <text style="fill: #1f1f1f; font: 9.5px 'DejaVu Sans'; text-anchor: middle" x="363.589607" y="56.96133" transform="rotate(-0 363.589607 56.96133)">x</text>
   </g>
   <g id="text_9">
    <text style="fill: #1f1f1f; font: 9.5px 'DejaVu Sans'; text-anchor: middle" x="56.403798" y="84.531051" transform="rotate(-0 56.403798 84.531051)">2</text>
   </g>
   <g id="text_10">
    <text style="fill: #1f1f1f; font: 9.5px 'DejaVu Sans'; text-anchor: middle" x="172.097155" y="43.176469" transform="rotate(-0 172.097155 43.176469)">1</text>
   </g>
   <g id="text_11">
    <text style="fill: #1f1f1f; font: 9.5px 'DejaVu Sans'; text-anchor: middle" x="86.324494" y="56.96133" transform="rotate(-0 86.324494 56.96133)">0</text>
   </g>
   <g id="text_12">
    <g id="patch_13">
     <path d="M 424.450424 94.374347 
L 467.137299 94.374347 
L 467.137299 77.78841 
L 424.450424 77.78841 
z
" style="fill: #ffffff; stroke: #bdbdbd; stroke-width: 0.8; stroke-linejoin: miter"/>
    </g>
    <text style="font: 11px 'DejaVu Sans'; text-anchor: start" x="427.420424" y="89.116691" transform="rotate(-0 427.420424 89.116691)">t = 0 s</text>
   </g>
  </g>
  <g id="axes_2">
   <g id="patch_14">
    <path d="M 40.446094 166.650261 
L 499.230094 166.650261 
L 499.230094 103.89287 
L 40.446094 103.89287 
z
" style="fill: #ffffff"/>
   </g>
   <g id="line2d_24">
    <path d="M 40.446094 157.218514 
L 499.230094 157.218514 
" clip-path="url(#pc493ce05ba)" style="fill: none; stroke-dasharray: 1.1,4.95; stroke-dashoffset: 0; stroke: #d6d6d6; stroke-width: 0.55"/>
   </g>
   <g id="line2d_25">
    <path d="M 40.446094 143.433654 
L 499.230094 143.433654 
" clip-path="url(#pc493ce05ba)" style="fill: none; stroke-dasharray: 1.1,4.95; stroke-dashoffset: 0; stroke: #d6d6d6; stroke-width: 0.55"/>
   </g>
   <g id="line2d_26">
    <path d="M 40.446094 129.648793 
L 499.230094 129.648793 
" clip-path="url(#pc493ce05ba)" style="fill: none; stroke-dasharray: 1.1,4.95; stroke-dashoffset: 0; stroke: #d6d6d6; stroke-width: 0.55"/>
   </g>
   <g id="line2d_27">
    <path d="M 40.446094 115.863933 
L 499.230094 115.863933 
" clip-path="url(#pc493ce05ba)" style="fill: none; stroke-dasharray: 1.1,4.95; stroke-dashoffset: 0; stroke: #d6d6d6; stroke-width: 0.55"/>
   </g>
   <g id="line2d_28">
    <path d="M 40.446094 122.756363 
L 499.230094 122.756363 
" clip-path="url(#pc493ce05ba)" style="fill: none; stroke-dasharray: 6,6; stroke-dashoffset: 0; stroke: #bcbcbc"/>
   </g>
   <g id="line2d_29">
    <path d="M 40.446094 136.541223 
L 499.230094 136.541223 
" clip-path="url(#pc493ce05ba)" style="fill: none; stroke-dasharray: 6,6; stroke-dashoffset: 0; stroke: #bcbcbc"/>
   </g>
   <g id="line2d_30">
    <path d="M 40.446094 150.326084 
L 499.230094 150.326084 
" clip-path="url(#pc493ce05ba)" style="fill: none; stroke-dasharray: 6,6; stroke-dashoffset: 0; stroke: #bcbcbc"/>
   </g>
   <g id="line2d_31">
    <path d="M 40.446094 108.971502 
L 499.230094 108.971502 
" clip-path="url(#pc493ce05ba)" style="fill: none; stroke: #000000; stroke-width: 1.45; stroke-linecap: square"/>
   </g>
   <g id="line2d_32">
    <path d="M 40.446094 164.110944 
L 499.230094 164.110944 
" clip-path="url(#pc493ce05ba)" style="fill: none; stroke: #000000; stroke-width: 1.45; stroke-linecap: square"/>
   </g>
   <g id="matplotlib.axis_3">
    <g id="xtick_6">
     <g id="line2d_33">
      <path d="M 56.403798 166.650261 
L 56.403798 103.89287 
" clip-path="url(#pc493ce05ba)" style="fill: none; stroke: #dddddd; stroke-opacity: 0.8; stroke-width: 0.55; stroke-linecap: square"/>
     </g>
     <g id="line2d_34">
      <g>
       <use xlink:href="#m0bee2536da" x="56.403798" y="166.650261" style="stroke: #000000; stroke-width: 0.6"/>
      </g>
     </g>
    </g>
    <g id="xtick_7">
     <g id="line2d_35">
      <path d="M 156.13945 166.650261 
L 156.13945 103.89287 
" clip-path="url(#pc493ce05ba)" style="fill: none; stroke: #dddddd; stroke-opacity: 0.8; stroke-width: 0.55; stroke-linecap: square"/>
     </g>
     <g id="line2d_36">
      <g>
       <use xlink:href="#m0bee2536da" x="156.13945" y="166.650261" style="stroke: #000000; stroke-width: 0.6"/>
      </g>
     </g>
    </g>
    <g id="xtick_8">
     <g id="line2d_37">
      <path d="M 255.875102 166.650261 
L 255.875102 103.89287 
" clip-path="url(#pc493ce05ba)" style="fill: none; stroke: #dddddd; stroke-opacity: 0.8; stroke-width: 0.55; stroke-linecap: square"/>
     </g>
     <g id="line2d_38">
      <g>
       <use xlink:href="#m0bee2536da" x="255.875102" y="166.650261" style="stroke: #000000; stroke-width: 0.6"/>
      </g>
     </g>
    </g>
    <g id="xtick_9">
     <g id="line2d_39">
      <path d="M 355.610755 166.650261 
L 355.610755 103.89287 
" clip-path="url(#pc493ce05ba)" style="fill: none; stroke: #dddddd; stroke-opacity: 0.8; stroke-width: 0.55; stroke-linecap: square"/>
     </g>
     <g id="line2d_40">
      <g>
       <use xlink:href="#m0bee2536da" x="355.610755" y="166.650261" style="stroke: #000000; stroke-width: 0.6"/>
      </g>
     </g>
    </g>
    <g id="xtick_10">
     <g id="line2d_41">
      <path d="M 455.346407 166.650261 
L 455.346407 103.89287 
" clip-path="url(#pc493ce05ba)" style="fill: none; stroke: #dddddd; stroke-opacity: 0.8; stroke-width: 0.55; stroke-linecap: square"/>
     </g>
     <g id="line2d_42">
      <g>
       <use xlink:href="#m0bee2536da" x="455.346407" y="166.650261" style="stroke: #000000; stroke-width: 0.6"/>
      </g>
     </g>
    </g>
   </g>
   <g id="matplotlib.axis_4">
    <g id="ytick_5">
     <g id="line2d_43">
      <g>
       <use xlink:href="#me11f80140e" x="40.446094" y="163.748185" style="stroke: #000000; stroke-width: 0.6"/>
      </g>
     </g>
     <g id="text_13">
      <text style="font: 9px 'DejaVu Sans'; text-anchor: end" x="34.146094" y="167.167482" transform="rotate(-0 34.146094 167.167482)">−5</text>
     </g>
    </g>
    <g id="ytick_6">
     <g id="line2d_44">
      <g>
       <use xlink:href="#me11f80140e" x="40.446094" y="145.610211" style="stroke: #000000; stroke-width: 0.6"/>
      </g>
     </g>
     <g id="text_14">
      <text style="font: 9px 'DejaVu Sans'; text-anchor: end" x="34.146094" y="149.029507" transform="rotate(-0 34.146094 149.029507)">0</text>
     </g>
    </g>
    <g id="ytick_7">
     <g id="line2d_45">
      <g>
       <use xlink:href="#me11f80140e" x="40.446094" y="127.472236" style="stroke: #000000; stroke-width: 0.6"/>
      </g>
     </g>
     <g id="text_15">
      <text style="font: 9px 'DejaVu Sans'; text-anchor: end" x="34.146094" y="130.891533" transform="rotate(-0 34.146094 130.891533)">5</text>
     </g>
    </g>
    <g id="ytick_8">
     <g id="line2d_46">
      <g>
       <use xlink:href="#me11f80140e" x="40.446094" y="109.334262" style="stroke: #000000; stroke-width: 0.6"/>
      </g>
     </g>
     <g id="text_16">
      <text style="font: 9px 'DejaVu Sans'; text-anchor: end" x="34.146094" y="112.753559" transform="rotate(-0 34.146094 112.753559)">10</text>
     </g>
    </g>
    <g id="text_17">
     <text style="font: 10px 'DejaVu Sans'; text-anchor: middle" x="14.798438" y="135.271565" transform="rotate(-90 14.798438 135.271565)">y [m]</text>
    </g>
   </g>
   <g id="patch_15">
    <path d="M 202.835683 147.569112 
L 225.93446 147.569112 
Q 226.433138 147.569112 226.433138 146.662213 
L 226.433138 140.205094 
Q 226.433138 139.298196 225.93446 139.298196 
L 202.835683 139.298196 
Q 202.337004 139.298196 202.337004 140.205094 
L 202.337004 146.662213 
Q 202.337004 147.569112 202.835683 147.569112 
z
" clip-path="url(#pc493ce05ba)" style="fill: #7fc6a4; opacity: 0.7; stroke: #667078; stroke-width: 0.8; stroke-linejoin: miter"/>
   </g>
   <g id="patch_16">
    <path d="M 300.177679 161.353972 
L 323.276456 161.353972 
Q 323.775134 161.353972 323.775134 160.447074 
L 323.775134 153.989955 
Q 323.775134 153.083056 323.276456 153.083056 
L 300.177679 153.083056 
Q 299.679001 153.083056 299.679001 153.989955 
L 299.679001 160.447074 
Q 299.679001 161.353972 300.177679 161.353972 
z
" clip-path="url(#pc493ce05ba)" style="fill: #b39ddb; opacity: 0.7; stroke: #667078; stroke-width: 0.8; stroke-linejoin: miter"/>
   </g>
   <g id="patch_17">
    <path d="M 40.446094 166.650261 
L 40.446094 103.89287 
" style="fill: none; stroke: #444444; stroke-width: 0.55; stroke-linejoin: miter; stroke-linecap: square"/>
   </g>
   <g id="patch_18">
    <path d="M 499.230094 166.650261 
L 499.230094 103.89287 
" style="fill: none; stroke: #444444; stroke-width: 0.55; stroke-linejoin: miter; stroke-linecap: square"/>
   </g>
   <g id="patch_19">
    <path d="M 40.446094 166.650261 
L 499.230094 166.650261 
" style="fill: none; stroke: #444444; stroke-width: 0.55; stroke-linejoin: miter; stroke-linecap: square"/>
   </g>
   <g id="patch_20">
    <path d="M 40.446094 103.89287 
L 499.230094 103.89287 
" style="fill: none; stroke: #444444; stroke-width: 0.55; stroke-linejoin: miter; stroke-linecap: square"/>
   </g>
   <g id="text_18">
    <text style="fill: #1f1f1f; font: 9.5px 'DejaVu Sans'; text-anchor: middle" x="214.385071" y="146.05506" transform="rotate(-0 214.385071 146.05506)">4</text>
   </g>
   <g id="text_19">
    <text style="fill: #1f1f1f; font: 9.5px 'DejaVu Sans'; text-anchor: middle" x="311.727068" y="159.83992" transform="rotate(-0 311.727068 159.83992)">5</text>
   </g>
   <g id="line2d_47">
    <path d="M 86.324494 129.648793 
L 87.464326 129.648793 
L 88.604134 129.648793 
L 89.743897 129.648793 
L 90.88359 129.648793 
L 92.023191 129.648793 
L 93.162679 129.648793 
L 94.302032 129.648793 
L 95.441229 129.648793 
L 96.580249 129.648793 
L 97.719072 129.648793 
L 98.857678 129.648793 
L 99.996047 129.648793 
L 101.13416 129.648793 
L 102.271998 129.648793 
L 103.409543 129.648793 
L 104.546776 129.648793 
L 105.683679 129.648793 
L 106.820236 129.648793 
L 107.95643 129.648793 
L 109.092242 129.648793 
L 110.227658 129.648793 
L 111.362661 129.648793 
L 112.497235 129.648793 
L 113.631366 129.648793 
L 114.765038 129.648793 
L 115.898237 129.648793 
L 117.030948 129.648793 
L 118.163158 129.648793 
L 119.294853 129.648793 
L 120.426019 129.648793 
L 121.556644 129.648793 
L 122.686716 129.648793 
L 123.816222 129.648793 
L 124.945149 129.648793 
L 126.073487 129.648793 
L 127.201225 129.648793 
L 128.32835 129.648793 
L 129.454853 129.648793 
L 130.580724 129.648793 
L 131.705952 129.648793 
L 132.830527 129.648793 
L 133.954441 129.648793 
L 135.077684 129.648793 
L 136.200247 129.648793 
L 137.322122 129.648793 
L 138.4433 129.648793 
L 139.563775 129.648793 
L 140.683538 129.648793 
L 141.802581 129.648793 
L 142.920899 129.648793 
L 144.038484 129.648793 
L 145.15533 129.648793 
L 146.27143 129.648793 
L 147.386779 129.648793 
L 148.501372 129.648793 
L 149.615202 129.648793 
L 150.728265 129.648793 
L 151.840557 129.648793 
L 152.952072 129.648793 
L 154.062807 129.648793 
L 155.172757 129.648793 
L 156.281919 129.648793 
L 157.390289 129.648793 
L 158.497865 129.648793 
L 159.604643 129.648793 
L 160.710621 129.648793 
L 161.815796 129.648793 
L 162.920166 129.648793 
L 164.02373 129.648793 
L 165.126485 129.648793 
L 166.228431 129.648793 
L 167.329565 129.648793 
L 168.429888 129.648793 
L 169.529398 129.648793 
L 170.628095 129.648793 
L 171.725979 129.648793 
L 172.82305 129.648793 
L 173.919308 129.648793 
L 175.014753 129.648793 
L 176.109386 129.648793 
L 177.203209 129.648793 
L 178.296222 129.648793 
L 179.388426 129.648793 
L 180.479824 129.648793 
L 181.570416 129.648793 
L 182.660206 129.648793 
L 183.749194 129.648793 
L 184.837384 129.648793 
L 185.924779 129.648793 
L 187.01138 129.648793 
L 188.097191 129.648793 
L 189.182215 129.648793 
L 190.266456 129.648793 
L 191.349917 129.648793 
L 192.432602 129.648793 
L 193.514515 129.648793 
L 194.59566 129.648793 
L 195.676042 129.648793 
L 196.755664 129.648793 
L 197.834532 129.648793 
L 198.91265 129.648793 
L 199.990025 129.648793 
L 201.066659 129.648793 
L 202.142561 129.648793 
L 203.217733 129.648793 
L 204.292184 129.648793 
L 205.365918 129.648793 
L 206.438941 129.648793 
L 207.51126 129.648793 
L 208.582881 129.648793 
L 209.65381 129.648793 
L 210.724055 129.648793 
L 211.793622 129.648793 
L 212.862518 129.648793 
L 213.930751 129.648793 
L 214.998326 129.648793 
L 216.065253 129.648793 
L 217.131538 129.648793 
L 218.197189 129.648793 
" clip-path="url(#pc493ce05ba)" style="fill: none; stroke-dasharray: 4.8,4.8; stroke-dashoffset: 0; stroke: #ec407a; stroke-opacity: 0.58; stroke-width: 1.2"/>
   </g>
   <g id="line2d_48">
    <path d="M 172.097155 115.863933 
L 172.633539 115.863933 
L 173.169872 115.863933 
L 173.706101 115.863933 
L 174.242177 115.863933 
L 174.778049 115.863933 
L 175.313669 115.863933 
L 175.848989 115.863933 
L 176.383962 115.863933 
L 176.918543 115.863933 
L 177.452685 115.863933 
L 177.986345 115.863933 
L 178.519478 115.863933 
L 179.052042 115.863933 
L 179.583996 115.863933 
L 180.115297 115.863933 
L 180.645906 115.863933 
L 181.175783 115.863933 
L 181.70489 115.863933 
L 182.233188 115.863933 
L 182.760641 115.863933 
L 183.287211 115.863933 
L 183.812865 115.863933 
L 184.337566 115.863933 
L 184.861281 115.863933 
L 185.383976 115.863933 
L 185.90562 115.863933 
L 186.426181 115.863933 
L 186.945627 115.863933 
L 187.463929 115.863933 
L 187.981056 115.863933 
L 188.496982 115.863933 
L 189.011676 115.863933 
L 189.525113 115.863933 
L 190.037266 115.863933 
L 190.548108 115.863933 
L 191.057616 115.863933 
L 191.565764 115.863933 
L 192.072529 115.863933 
L 192.577888 115.863933 
L 193.081818 115.863933 
L 193.584299 115.863933 
L 194.08531 115.863933 
L 194.584829 115.863933 
L 195.082838 115.863933 
L 195.579318 115.863933 
L 196.074251 115.863933 
L 196.567619 115.863933 
L 197.059405 115.863933 
L 197.549593 115.863933 
L 198.038168 115.863933 
L 198.525114 115.863933 
L 199.010418 115.863933 
L 199.494066 115.863933 
L 199.976044 115.863933 
L 200.456341 115.863933 
L 200.934944 115.863933 
L 201.411843 115.863933 
L 201.887026 115.863933 
L 202.360484 115.863933 
L 202.832208 115.863933 
L 203.302188 115.863933 
L 203.770417 115.863933 
L 204.236887 115.863933 
L 204.701591 115.863933 
L 205.164522 115.863933 
L 205.625675 115.863933 
L 206.085045 115.863933 
L 206.542625 115.863933 
L 206.998413 115.863933 
L 207.452405 115.863933 
L 207.904597 115.863933 
L 208.354987 115.863933 
L 208.803573 115.863933 
L 209.250353 115.863933 
L 209.695327 115.863933 
L 210.138494 115.863933 
L 210.579853 115.863933 
L 211.019406 115.863933 
L 211.457153 115.863933 
L 211.893096 115.863933 
L 212.327238 115.863933 
L 212.75958 115.863933 
L 213.190125 115.863933 
L 213.618878 115.863933 
L 214.045841 115.863933 
L 214.47102 115.863933 
L 214.894419 115.863933 
L 215.316044 115.863933 
L 215.7359 115.863933 
L 216.153994 115.863933 
L 216.570332 115.863933 
L 216.984922 115.863933 
L 217.39777 115.863933 
L 217.808886 115.863933 
L 218.218277 115.863933 
L 218.625952 115.863933 
L 219.031921 115.863933 
L 219.436193 115.863933 
L 219.838779 115.863933 
L 220.239687 115.863933 
L 220.638931 115.863933 
L 221.03652 115.863933 
L 221.432466 115.863933 
L 221.826782 115.863933 
L 222.21948 115.863933 
L 222.610572 115.863933 
L 223.000071 115.863933 
L 223.387992 115.863933 
L 223.774347 115.863933 
L 224.159152 115.863933 
L 224.54242 115.863933 
L 224.924166 115.863933 
L 225.304406 115.863933 
L 225.683155 115.863933 
L 226.060429 115.863933 
L 226.436244 115.863933 
L 226.810617 115.863933 
L 227.183564 115.863933 
L 227.555102 115.863933 
" clip-path="url(#pc493ce05ba)" style="fill: none; stroke-dasharray: 4.8,4.8; stroke-dashoffset: 0; stroke: #45a9df; stroke-opacity: 0.58; stroke-width: 1.2"/>
   </g>
   <g id="line2d_49">
    <path d="M 56.403798 157.218514 
L 57.080995 157.218514 
L 57.758191 157.218514 
L 58.435388 157.218514 
L 59.112585 157.218514 
L 59.789782 157.218514 
L 60.466978 157.218514 
L 61.144175 157.218514 
L 61.821372 157.218514 
L 62.498568 157.218514 
L 63.175765 157.218514 
L 63.852962 157.218514 
L 64.530158 157.218514 
L 65.207355 157.218514 
L 65.884552 157.218514 
L 66.561749 157.218514 
L 67.238945 157.218514 
L 67.916142 157.218514 
L 68.593339 157.218514 
L 69.270535 157.218514 
L 69.947732 157.218514 
L 70.624929 157.218514 
L 71.302125 157.218514 
L 71.979322 157.218514 
L 72.656519 157.218514 
L 73.333716 157.218514 
L 74.010912 157.218514 
L 74.688109 157.218514 
L 75.365306 157.218514 
L 76.042502 157.218514 
L 76.719699 157.218514 
L 77.396896 157.218514 
L 78.074092 157.218514 
L 78.751289 157.218514 
L 79.428486 157.218514 
L 80.105682 157.218514 
L 80.782879 157.218514 
L 81.460076 157.218514 
L 82.137273 157.218514 
L 82.814469 157.218514 
L 83.491666 157.218514 
L 84.168863 157.218514 
L 84.846059 157.218514 
L 85.523256 157.218514 
L 86.200453 157.218514 
L 86.877649 157.218514 
L 87.554846 157.218514 
L 88.232043 157.218514 
L 88.90924 157.218514 
L 89.586436 157.218514 
L 90.263633 157.218514 
L 90.94083 157.218514 
L 91.618026 157.218514 
L 92.295223 157.218514 
L 92.97242 157.218514 
L 93.649616 157.218514 
L 94.326813 157.218514 
L 95.00401 157.218514 
L 95.681207 157.218514 
L 96.358403 157.218514 
L 97.0356 157.218514 
L 97.712797 157.218514 
L 98.389993 157.218514 
L 99.06719 157.218514 
L 99.744387 157.218514 
L 100.421583 157.218514 
L 101.09878 157.218514 
L 101.775977 157.218514 
L 102.453174 157.218514 
L 103.13037 157.218514 
L 103.807567 157.218514 
L 104.484764 157.218514 
L 105.16196 157.218514 
L 105.839157 157.218514 
L 106.516354 157.218514 
L 107.19355 157.218514 
L 107.870747 157.218514 
L 108.547944 157.218514 
L 109.22514 157.218514 
L 109.902337 157.218514 
L 110.579534 157.218514 
L 111.256731 157.218514 
L 111.933927 157.218514 
L 112.611124 157.218514 
L 113.288321 157.218514 
L 113.965517 157.218514 
L 114.642714 157.218514 
L 115.319911 157.218514 
L 115.997107 157.218514 
L 116.674304 157.218514 
L 117.351501 157.218514 
L 118.028698 157.218514 
L 118.705894 157.218514 
L 119.383091 157.218514 
L 120.060288 157.218514 
L 120.737484 157.218514 
L 121.414681 157.218514 
L 122.091878 157.218514 
L 122.769074 157.218514 
L 123.446271 157.218514 
L 124.123468 157.218514 
L 124.800665 157.218514 
L 125.477861 157.218514 
L 126.155058 157.218514 
L 126.832255 157.218514 
L 127.509451 157.218514 
L 128.186648 157.218514 
L 128.863845 157.218514 
L 129.541041 157.218514 
L 130.218238 157.218514 
L 130.895435 157.218514 
L 131.572631 157.218514 
L 132.249828 157.218514 
L 132.927025 157.218514 
L 133.604222 157.218514 
L 134.281418 157.218514 
L 134.958615 157.218514 
L 135.635812 157.218514 
L 136.313008 157.218514 
L 136.990205 157.218514 
" clip-path="url(#pc493ce05ba)" style="fill: none; stroke-dasharray: 4.8,4.8; stroke-dashoffset: 0; stroke: #f29b72; stroke-opacity: 0.58; stroke-width: 1.2"/>
   </g>
   <g id="patch_21">
    <path d="M 352.040218 133.784251 
L 375.138995 133.784251 
Q 375.637674 133.784251 375.637674 132.877353 
L 375.637674 126.420234 
Q 375.637674 125.513335 375.138995 125.513335 
L 352.040218 125.513335 
Q 351.54154 125.513335 351.54154 126.420234 
L 351.54154 132.877353 
Q 351.54154 133.784251 352.040218 133.784251 
z
" clip-path="url(#pc493ce05ba)" style="fill: #ffd22e; opacity: 0.82; stroke: #666666; stroke-width: 0.8; stroke-linejoin: miter"/>
   </g>
   <g id="patch_22">
    <path d="M 125.440817 161.353972 
L 148.539594 161.353972 
Q 149.038272 161.353972 149.038272 160.447074 
L 149.038272 153.989955 
Q 149.038272 153.083056 148.539594 153.083056 
L 125.440817 153.083056 
Q 124.942138 153.083056 124.942138 153.989955 
L 124.942138 160.447074 
Q 124.942138 161.353972 125.440817 161.353972 
z
" clip-path="url(#pc493ce05ba)" style="fill: #f29b72; opacity: 0.82; stroke: #666666; stroke-width: 0.8; stroke-linejoin: miter"/>
   </g>
   <g id="patch_23">
    <path d="M 216.005714 119.999391 
L 239.104491 119.999391 
Q 239.603169 119.999391 239.603169 119.092492 
L 239.603169 112.635373 
Q 239.603169 111.728474 239.104491 111.728474 
L 216.005714 111.728474 
Q 215.507036 111.728474 215.507036 112.635373 
L 215.507036 119.092492 
Q 215.507036 119.999391 216.005714 119.999391 
z
" clip-path="url(#pc493ce05ba)" style="fill: #45a9df; opacity: 0.82; stroke: #666666; stroke-width: 0.8; stroke-linejoin: miter"/>
   </g>
   <g id="patch_24">
    <path d="M 206.647801 133.784251 
L 229.746578 133.784251 
Q 230.245256 133.784251 230.245256 132.877353 
L 230.245256 126.420234 
Q 230.245256 125.513335 229.746578 125.513335 
L 206.647801 125.513335 
Q 206.149123 125.513335 206.149123 126.420234 
L 206.149123 132.877353 
Q 206.149123 133.784251 206.647801 133.784251 
z
" clip-path="url(#pc493ce05ba)" style="fill: #ec407a; opacity: 0.82; stroke: #666666; stroke-width: 0.8; stroke-linejoin: miter"/>
   </g>
   <g id="text_20">
    <text style="fill: #1f1f1f; font: 9.5px 'DejaVu Sans'; text-anchor: middle" x="363.589607" y="132.270199" transform="rotate(-0 363.589607 132.270199)">x</text>
   </g>
   <g id="text_21">
    <text style="fill: #1f1f1f; font: 9.5px 'DejaVu Sans'; text-anchor: middle" x="136.990205" y="159.83992" transform="rotate(-0 136.990205 159.83992)">2</text>
   </g>
   <g id="text_22">
    <text style="fill: #1f1f1f; font: 9.5px 'DejaVu Sans'; text-anchor: middle" x="227.555102" y="118.485339" transform="rotate(-0 227.555102 118.485339)">1</text>
   </g>
   <g id="text_23">
    <text style="fill: #1f1f1f; font: 9.5px 'DejaVu Sans'; text-anchor: middle" x="218.197189" y="132.270199" transform="rotate(-0 218.197189 132.270199)">0</text>
   </g>
   <g id="text_24">
    <g id="patch_25">
     <path d="M 424.450424 169.683217 
L 467.137299 169.683217 
L 467.137299 153.09728 
L 424.450424 153.09728 
z
" style="fill: #ffffff; stroke: #bdbdbd; stroke-width: 0.8; stroke-linejoin: miter"/>
    </g>
    <text style="font: 11px 'DejaVu Sans'; text-anchor: start" x="427.420424" y="164.425561" transform="rotate(-0 427.420424 164.425561)">t = 2 s</text>
   </g>
  </g>
  <g id="axes_3">
   <g id="patch_26">
    <path d="M 40.446094 241.95913 
L 499.230094 241.95913 
L 499.230094 179.201739 
L 40.446094 179.201739 
z
" style="fill: #ffffff"/>
   </g>
   <g id="line2d_50">
    <path d="M 40.446094 232.527384 
L 499.230094 232.527384 
" clip-path="url(#pecda26b824)" style="fill: none; stroke-dasharray: 1.1,4.95; stroke-dashoffset: 0; stroke: #d6d6d6; stroke-width: 0.55"/>
   </g>
   <g id="line2d_51">
    <path d="M 40.446094 218.742523 
L 499.230094 218.742523 
" clip-path="url(#pecda26b824)" style="fill: none; stroke-dasharray: 1.1,4.95; stroke-dashoffset: 0; stroke: #d6d6d6; stroke-width: 0.55"/>
   </g>
   <g id="line2d_52">
    <path d="M 40.446094 204.957663 
L 499.230094 204.957663 
" clip-path="url(#pecda26b824)" style="fill: none; stroke-dasharray: 1.1,4.95; stroke-dashoffset: 0; stroke: #d6d6d6; stroke-width: 0.55"/>
   </g>
   <g id="line2d_53">
    <path d="M 40.446094 191.172802 
L 499.230094 191.172802 
" clip-path="url(#pecda26b824)" style="fill: none; stroke-dasharray: 1.1,4.95; stroke-dashoffset: 0; stroke: #d6d6d6; stroke-width: 0.55"/>
   </g>
   <g id="line2d_54">
    <path d="M 40.446094 198.065232 
L 499.230094 198.065232 
" clip-path="url(#pecda26b824)" style="fill: none; stroke-dasharray: 6,6; stroke-dashoffset: 0; stroke: #bcbcbc"/>
   </g>
   <g id="line2d_55">
    <path d="M 40.446094 211.850093 
L 499.230094 211.850093 
" clip-path="url(#pecda26b824)" style="fill: none; stroke-dasharray: 6,6; stroke-dashoffset: 0; stroke: #bcbcbc"/>
   </g>
   <g id="line2d_56">
    <path d="M 40.446094 225.634954 
L 499.230094 225.634954 
" clip-path="url(#pecda26b824)" style="fill: none; stroke-dasharray: 6,6; stroke-dashoffset: 0; stroke: #bcbcbc"/>
   </g>
   <g id="line2d_57">
    <path d="M 40.446094 184.280372 
L 499.230094 184.280372 
" clip-path="url(#pecda26b824)" style="fill: none; stroke: #000000; stroke-width: 1.45; stroke-linecap: square"/>
   </g>
   <g id="line2d_58">
    <path d="M 40.446094 239.419814 
L 499.230094 239.419814 
" clip-path="url(#pecda26b824)" style="fill: none; stroke: #000000; stroke-width: 1.45; stroke-linecap: square"/>
   </g>
   <g id="matplotlib.axis_5">
    <g id="xtick_11">
     <g id="line2d_59">
      <path d="M 56.403798 241.95913 
L 56.403798 179.201739 
" clip-path="url(#pecda26b824)" style="fill: none; stroke: #dddddd; stroke-opacity: 0.8; stroke-width: 0.55; stroke-linecap: square"/>
     </g>
     <g id="line2d_60">
      <g>
       <use xlink:href="#m0bee2536da" x="56.403798" y="241.95913" style="stroke: #000000; stroke-width: 0.6"/>
      </g>
     </g>
    </g>
    <g id="xtick_12">
     <g id="line2d_61">
      <path d="M 156.13945 241.95913 
L 156.13945 179.201739 
" clip-path="url(#pecda26b824)" style="fill: none; stroke: #dddddd; stroke-opacity: 0.8; stroke-width: 0.55; stroke-linecap: square"/>
     </g>
     <g id="line2d_62">
      <g>
       <use xlink:href="#m0bee2536da" x="156.13945" y="241.95913" style="stroke: #000000; stroke-width: 0.6"/>
      </g>
     </g>
    </g>
    <g id="xtick_13">
     <g id="line2d_63">
      <path d="M 255.875102 241.95913 
L 255.875102 179.201739 
" clip-path="url(#pecda26b824)" style="fill: none; stroke: #dddddd; stroke-opacity: 0.8; stroke-width: 0.55; stroke-linecap: square"/>
     </g>
     <g id="line2d_64">
      <g>
       <use xlink:href="#m0bee2536da" x="255.875102" y="241.95913" style="stroke: #000000; stroke-width: 0.6"/>
      </g>
     </g>
    </g>
    <g id="xtick_14">
     <g id="line2d_65">
      <path d="M 355.610755 241.95913 
L 355.610755 179.201739 
" clip-path="url(#pecda26b824)" style="fill: none; stroke: #dddddd; stroke-opacity: 0.8; stroke-width: 0.55; stroke-linecap: square"/>
     </g>
     <g id="line2d_66">
      <g>
       <use xlink:href="#m0bee2536da" x="355.610755" y="241.95913" style="stroke: #000000; stroke-width: 0.6"/>
      </g>
     </g>
    </g>
    <g id="xtick_15">
     <g id="line2d_67">
      <path d="M 455.346407 241.95913 
L 455.346407 179.201739 
" clip-path="url(#pecda26b824)" style="fill: none; stroke: #dddddd; stroke-opacity: 0.8; stroke-width: 0.55; stroke-linecap: square"/>
     </g>
     <g id="line2d_68">
      <g>
       <use xlink:href="#m0bee2536da" x="455.346407" y="241.95913" style="stroke: #000000; stroke-width: 0.6"/>
      </g>
     </g>
    </g>
   </g>
   <g id="matplotlib.axis_6">
    <g id="ytick_9">
     <g id="line2d_69">
      <g>
       <use xlink:href="#me11f80140e" x="40.446094" y="239.057055" style="stroke: #000000; stroke-width: 0.6"/>
      </g>
     </g>
     <g id="text_25">
      <text style="font: 9px 'DejaVu Sans'; text-anchor: end" x="34.146094" y="242.476351" transform="rotate(-0 34.146094 242.476351)">−5</text>
     </g>
    </g>
    <g id="ytick_10">
     <g id="line2d_70">
      <g>
       <use xlink:href="#me11f80140e" x="40.446094" y="220.91908" style="stroke: #000000; stroke-width: 0.6"/>
      </g>
     </g>
     <g id="text_26">
      <text style="font: 9px 'DejaVu Sans'; text-anchor: end" x="34.146094" y="224.338377" transform="rotate(-0 34.146094 224.338377)">0</text>
     </g>
    </g>
    <g id="ytick_11">
     <g id="line2d_71">
      <g>
       <use xlink:href="#me11f80140e" x="40.446094" y="202.781106" style="stroke: #000000; stroke-width: 0.6"/>
      </g>
     </g>
     <g id="text_27">
      <text style="font: 9px 'DejaVu Sans'; text-anchor: end" x="34.146094" y="206.200403" transform="rotate(-0 34.146094 206.200403)">5</text>
     </g>
    </g>
    <g id="ytick_12">
     <g id="line2d_72">
      <g>
       <use xlink:href="#me11f80140e" x="40.446094" y="184.643131" style="stroke: #000000; stroke-width: 0.6"/>
      </g>
     </g>
     <g id="text_28">
      <text style="font: 9px 'DejaVu Sans'; text-anchor: end" x="34.146094" y="188.062428" transform="rotate(-0 34.146094 188.062428)">10</text>
     </g>
    </g>
    <g id="text_29">
     <text style="font: 10px 'DejaVu Sans'; text-anchor: middle" x="14.798438" y="210.580435" transform="rotate(-90 14.798438 210.580435)">y [m]</text>
    </g>
   </g>
   <g id="patch_27">
    <path d="M 277.039008 222.877981 
L 300.137785 222.877981 
Q 300.636463 222.877981 300.636463 221.971083 
L 300.636463 215.513964 
Q 300.636463 214.607065 300.137785 214.607065 
L 277.039008 214.607065 
Q 276.54033 214.607065 276.54033 215.513964 
L 276.54033 221.971083 
Q 276.54033 222.877981 277.039008 222.877981 
z
" clip-path="url(#pecda26b824)" style="fill: #7fc6a4; opacity: 0.7; stroke: #667078; stroke-width: 0.8; stroke-linejoin: miter"/>
   </g>
   <g id="patch_28">
    <path d="M 379.966201 236.662842 
L 403.064978 236.662842 
Q 403.563656 236.662842 403.563656 235.755943 
L 403.563656 229.298824 
Q 403.563656 228.391926 403.064978 228.391926 
L 379.966201 228.391926 
Q 379.467523 228.391926 379.467523 229.298824 
L 379.467523 235.755943 
Q 379.467523 236.662842 379.966201 236.662842 
z
" clip-path="url(#pecda26b824)" style="fill: #b39ddb; opacity: 0.7; stroke: #667078; stroke-width: 0.8; stroke-linejoin: miter"/>
   </g>
   <g id="patch_29">
    <path d="M 40.446094 241.95913 
L 40.446094 179.201739 
" style="fill: none; stroke: #444444; stroke-width: 0.55; stroke-linejoin: miter; stroke-linecap: square"/>
   </g>
   <g id="patch_30">
    <path d="M 499.230094 241.95913 
L 499.230094 179.201739 
" style="fill: none; stroke: #444444; stroke-width: 0.55; stroke-linejoin: miter; stroke-linecap: square"/>
   </g>
   <g id="patch_31">
    <path d="M 40.446094 241.95913 
L 499.230094 241.95913 
" style="fill: none; stroke: #444444; stroke-width: 0.55; stroke-linejoin: miter; stroke-linecap: square"/>
   </g>
   <g id="patch_32">
    <path d="M 40.446094 179.201739 
L 499.230094 179.201739 
" style="fill: none; stroke: #444444; stroke-width: 0.55; stroke-linejoin: miter; stroke-linecap: square"/>
   </g>
   <g id="text_30">
    <text style="fill: #1f1f1f; font: 9.5px 'DejaVu Sans'; text-anchor: middle" x="288.588396" y="221.363929" transform="rotate(-0 288.588396 221.363929)">4</text>
   </g>
   <g id="text_31">
    <text style="fill: #1f1f1f; font: 9.5px 'DejaVu Sans'; text-anchor: middle" x="391.515589" y="235.14879" transform="rotate(-0 391.515589 235.14879)">5</text>
   </g>
   <g id="line2d_73">
    <path d="M 86.324494 204.957663 
L 88.604134 204.957663 
L 90.88359 204.957663 
L 93.162679 204.957663 
L 95.441229 204.957663 
L 97.719072 204.957663 
L 99.996047 204.957663 
L 102.271998 204.957663 
L 104.546776 204.957663 
L 106.820236 204.957663 
L 109.092242 204.957663 
L 111.362661 204.957663 
L 113.631366 204.957663 
L 115.898237 204.957663 
L 118.163158 204.957663 
L 120.426019 204.957663 
L 122.686716 204.957663 
L 124.945149 204.957663 
L 127.201225 204.957663 
L 129.454853 204.957663 
L 131.705952 204.957663 
L 133.954441 204.957663 
L 136.200247 204.957663 
L 138.4433 204.957663 
L 140.683538 204.957663 
L 142.920899 204.957663 
L 145.15533 204.957663 
L 147.386779 204.957663 
L 149.615202 204.957663 
L 151.840557 204.957663 
L 154.062807 204.957663 
L 156.281919 204.957663 
L 158.497865 204.957663 
L 160.710621 204.957663 
L 162.920166 204.957663 
L 165.126485 204.957663 
L 167.329565 204.957663 
L 169.529398 204.957663 
L 171.725979 204.957663 
L 173.919308 204.957663 
L 176.109386 204.957663 
L 178.296222 204.957663 
L 180.479824 204.957663 
L 182.660206 204.957663 
L 184.837384 204.957663 
L 187.01138 204.957663 
L 189.182215 204.957663 
L 191.349917 204.957663 
L 193.514515 204.957663 
L 195.676042 204.957663 
L 197.834532 204.957663 
L 199.990025 204.957663 
L 202.142561 204.957663 
L 204.292184 204.957663 
L 206.438941 204.957663 
L 208.582881 204.957663 
L 210.724055 204.957663 
L 212.862518 204.957663 
L 214.998326 204.957663 
L 217.131538 204.957663 
L 219.262215 204.957663 
L 221.390419 204.957663 
L 223.516216 204.957663 
L 225.639674 204.957663 
L 227.760861 204.957663 
L 229.879849 204.957663 
L 231.996709 204.957663 
L 234.111518 204.957663 
L 236.224351 204.957663 
L 238.335286 204.957663 
L 240.444402 204.957663 
L 242.55178 204.957663 
L 244.657502 204.957663 
L 246.761652 204.957663 
L 248.864314 204.957663 
L 250.965574 204.957663 
L 253.06552 204.95766 
L 255.164238 204.956272 
L 257.261818 204.948701 
L 259.35835 204.930154 
L 261.453924 204.896459 
L 263.548632 204.844036 
L 265.642565 204.769875 
L 267.735817 204.671506 
L 269.828479 204.546978 
L 271.920646 204.394828 
L 274.012411 204.214057 
L 276.103869 204.004108 
L 278.195114 203.764831 
L 280.286241 203.496468 
L 282.377344 203.199617 
L 284.468518 202.875213 
L 286.559858 202.524498 
L 288.651458 202.149 
L 290.743413 201.750499 
L 292.835816 201.33101 
L 294.928761 200.89275 
L 297.022341 200.438116 
L 299.11665 199.969658 
L 301.21178 199.490054 
L 303.307821 199.00208 
L 305.404866 198.508589 
L 307.503004 198.012485 
L 309.602325 197.516692 
L 311.702917 197.024132 
L 313.804867 196.5377 
L 315.908263 196.060234 
L 318.013188 195.594494 
L 320.119728 195.143131 
L 322.227965 194.708665 
L 324.33798 194.293457 
L 326.449854 193.899683 
L 328.563665 193.529311 
L 330.679491 193.184069 
L 332.797406 192.865426 
L 334.917484 192.574561 
L 337.039798 192.31234 
L 339.164417 192.079288 
L 341.291409 191.875565 
L 343.420842 191.700938 
" clip-path="url(#pecda26b824)" style="fill: none; stroke-dasharray: 4.8,4.8; stroke-dashoffset: 0; stroke: #ec407a; stroke-opacity: 0.58; stroke-width: 1.2"/>
   </g>
   <g id="line2d_74">
    <path d="M 172.097155 191.172802 
L 173.169872 191.172802 
L 174.242177 191.172802 
L 175.313669 191.172802 
L 176.383962 191.172802 
L 177.452685 191.172802 
L 178.519478 191.172802 
L 179.583996 191.172802 
L 180.645906 191.172802 
L 181.70489 191.172802 
L 182.760641 191.172802 
L 183.812865 191.172802 
L 184.861281 191.172802 
L 185.90562 191.172802 
L 186.945627 191.172802 
L 187.981056 191.172802 
L 189.011676 191.172802 
L 190.037266 191.172802 
L 191.057616 191.172802 
L 192.072529 191.172802 
L 193.081818 191.172802 
L 194.08531 191.172802 
L 195.082838 191.172802 
L 196.074251 191.172802 
L 197.059405 191.172802 
L 198.038168 191.172802 
L 199.010418 191.172802 
L 199.976044 191.172802 
L 200.934944 191.172802 
L 201.887026 191.172802 
L 202.832208 191.172802 
L 203.770417 191.172802 
L 204.701591 191.172802 
L 205.625675 191.172802 
L 206.542625 191.172802 
L 207.452405 191.172802 
L 208.354987 191.172802 
L 209.250353 191.172802 
L 210.138494 191.172802 
L 211.019406 191.172802 
L 211.893096 191.172802 
L 212.75958 191.172802 
L 213.618878 191.172802 
L 214.47102 191.172802 
L 215.316044 191.172802 
L 216.153994 191.172802 
L 216.984922 191.172802 
L 217.808886 191.172802 
L 218.625952 191.172802 
L 219.436193 191.172802 
L 220.239687 191.172802 
L 221.03652 191.172802 
L 221.826782 191.172802 
L 222.610572 191.172802 
L 223.387992 191.172802 
L 224.159152 191.172802 
L 224.924166 191.172802 
L 225.683155 191.172802 
L 226.436244 191.172802 
L 227.183564 191.172802 
L 227.92525 191.172802 
L 228.661442 191.172802 
L 229.392285 191.172802 
L 230.117928 191.172802 
L 230.838526 191.172802 
L 231.554237 191.172802 
L 232.265221 191.172802 
L 232.971645 191.172802 
L 233.673678 191.172802 
L 234.371493 191.172802 
L 235.065266 191.172802 
L 235.755177 191.172802 
L 236.441409 191.172802 
L 237.124147 191.172802 
L 237.803578 191.172802 
L 238.479894 191.172802 
L 239.153288 191.172802 
L 239.823956 191.172802 
L 240.492094 191.172802 
L 241.157903 191.172802 
L 241.821584 191.172802 
L 242.483339 191.172802 
L 243.143373 191.172802 
L 243.801891 191.172802 
L 244.459101 191.172802 
L 245.115209 191.172802 
L 245.770426 191.172802 
L 246.42496 191.172802 
L 247.07902 191.172802 
L 247.732817 191.172802 
L 248.386562 191.172802 
L 249.040465 191.172802 
L 249.694736 191.172802 
L 250.349584 191.172802 
L 251.005221 191.172802 
L 251.661854 191.172802 
L 252.319692 191.172802 
L 252.978943 191.172802 
L 253.639811 191.172802 
L 254.302504 191.172802 
L 254.967223 191.172802 
L 255.634172 191.172802 
L 256.30355 191.172802 
L 256.975556 191.172802 
L 257.650387 191.172802 
L 258.328237 191.172802 
L 259.009298 191.172802 
L 259.693759 191.172802 
L 260.381807 191.172802 
L 261.073627 191.172802 
L 261.769399 191.172802 
L 262.469301 191.172802 
L 263.173508 191.172802 
L 263.882191 191.172802 
L 264.595518 191.172802 
L 265.313652 191.172802 
L 266.036754 191.172802 
L 266.764978 191.172802 
L 267.498477 191.172802 
L 268.237398 191.172802 
" clip-path="url(#pecda26b824)" style="fill: none; stroke-dasharray: 4.8,4.8; stroke-dashoffset: 0; stroke: #45a9df; stroke-opacity: 0.58; stroke-width: 1.2"/>
   </g>
   <g id="line2d_75">
    <path d="M 56.403798 232.527384 
L 57.758191 232.527384 
L 59.112585 232.527384 
L 60.466978 232.527384 
L 61.821372 232.527384 
L 63.175765 232.527384 
L 64.530158 232.527384 
L 65.884552 232.527384 
L 67.238945 232.527384 
L 68.593339 232.527384 
L 69.947732 232.527384 
L 71.302125 232.527384 
L 72.656519 232.527384 
L 74.010912 232.527384 
L 75.365306 232.527384 
L 76.719699 232.527384 
L 78.074092 232.527384 
L 79.428486 232.527384 
L 80.782879 232.527384 
L 82.137273 232.527384 
L 83.491666 232.527384 
L 84.846059 232.527384 
L 86.200453 232.527384 
L 87.554846 232.527384 
L 88.90924 232.527384 
L 90.263633 232.527384 
L 91.618026 232.527384 
L 92.97242 232.527384 
L 94.326813 232.527384 
L 95.681207 232.527384 
L 97.0356 232.527384 
L 98.389993 232.527384 
L 99.744387 232.527384 
L 101.09878 232.527384 
L 102.453174 232.527384 
L 103.807567 232.527384 
L 105.16196 232.527384 
L 106.516354 232.527384 
L 107.870747 232.527384 
L 109.22514 232.527384 
L 110.579534 232.527384 
L 111.933927 232.527384 
L 113.288321 232.527384 
L 114.642714 232.527384 
L 115.997107 232.527384 
L 117.351501 232.527384 
L 118.705894 232.527384 
L 120.060288 232.527384 
L 121.414681 232.527384 
L 122.769074 232.527384 
L 124.123468 232.527384 
L 125.477861 232.527384 
L 126.832255 232.527384 
L 128.186648 232.527384 
L 129.541041 232.527384 
L 130.895435 232.527384 
L 132.249828 232.527384 
L 133.604222 232.527384 
L 134.958615 232.527384 
L 136.313008 232.527384 
L 137.667402 232.527384 
L 139.021795 232.527384 
L 140.376189 232.527384 
L 141.730582 232.527384 
L 143.084975 232.527384 
L 144.439369 232.527384 
L 145.793762 232.527384 
L 147.148156 232.527384 
L 148.502549 232.527384 
L 149.856942 232.527384 
L 151.211336 232.527384 
L 152.565729 232.527384 
L 153.920122 232.527384 
L 155.274516 232.527384 
L 156.628909 232.527384 
L 157.983303 232.527384 
L 159.337696 232.527384 
L 160.692089 232.527384 
L 162.046483 232.527384 
L 163.400876 232.527384 
L 164.75527 232.527384 
L 166.109663 232.527384 
L 167.464056 232.527384 
L 168.81845 232.527384 
L 170.172843 232.527384 
L 171.527237 232.527384 
L 172.88163 232.527384 
L 174.236023 232.527384 
L 175.590417 232.527384 
L 176.94481 232.527384 
L 178.299204 232.527384 
L 179.653597 232.527384 
L 181.00799 232.527384 
L 182.362384 232.527384 
L 183.716777 232.527384 
L 185.071171 232.527384 
L 186.425564 232.527384 
L 187.779957 232.527384 
L 189.134351 232.527384 
L 190.488744 232.527384 
L 191.843138 232.527384 
L 193.197531 232.527384 
L 194.551924 232.527384 
L 195.906318 232.527384 
L 197.260711 232.527384 
L 198.615104 232.527384 
L 199.969498 232.527384 
L 201.323891 232.527384 
L 202.678285 232.527384 
L 204.032678 232.527384 
L 205.387071 232.527384 
L 206.741465 232.527384 
L 208.095858 232.527384 
L 209.450252 232.527384 
L 210.804645 232.527384 
L 212.159038 232.527384 
L 213.513432 232.527384 
L 214.867825 232.527384 
L 216.222219 232.527384 
L 217.576612 232.527384 
" clip-path="url(#pecda26b824)" style="fill: none; stroke-dasharray: 4.8,4.8; stroke-dashoffset: 0; stroke: #f29b72; stroke-opacity: 0.58; stroke-width: 1.2"/>
   </g>
   <g id="patch_33">
    <path d="M 352.040218 209.093121 
L 375.138995 209.093121 
Q 375.637674 209.093121 375.637674 208.186222 
L 375.637674 201.729103 
Q 375.637674 200.822205 375.138995 200.822205 
L 352.040218 200.822205 
Q 351.54154 200.822205 351.54154 201.729103 
L 351.54154 208.186222 
Q 351.54154 209.093121 352.040218 209.093121 
z
" clip-path="url(#pecda26b824)" style="fill: #ffd22e; opacity: 0.82; stroke: #666666; stroke-width: 0.8; stroke-linejoin: miter"/>
   </g>
   <g id="patch_34">
    <path d="M 206.027223 236.662842 
L 229.126001 236.662842 
Q 229.624679 236.662842 229.624679 235.755943 
L 229.624679 229.298824 
Q 229.624679 228.391926 229.126001 228.391926 
L 206.027223 228.391926 
Q 205.528545 228.391926 205.528545 229.298824 
L 205.528545 235.755943 
Q 205.528545 236.662842 206.027223 236.662842 
z
" clip-path="url(#pecda26b824)" style="fill: #f29b72; opacity: 0.82; stroke: #666666; stroke-width: 0.8; stroke-linejoin: miter"/>
   </g>
   <g id="patch_35">
    <path d="M 256.68801 195.30826 
L 279.786787 195.30826 
Q 280.285465 195.30826 280.285465 194.401362 
L 280.285465 187.944243 
Q 280.285465 187.037344 279.786787 187.037344 
L 256.68801 187.037344 
Q 256.189331 187.037344 256.189331 187.944243 
L 256.189331 194.401362 
Q 256.189331 195.30826 256.68801 195.30826 
z
" clip-path="url(#pecda26b824)" style="fill: #45a9df; opacity: 0.82; stroke: #666666; stroke-width: 0.8; stroke-linejoin: miter"/>
   </g>
   <g id="patch_36">
    <path d="M 331.871453 195.836396 
L 354.97023 195.836396 
Q 355.468908 195.836396 355.468908 194.929497 
L 355.468908 188.472378 
Q 355.468908 187.56548 354.97023 187.56548 
L 331.871453 187.56548 
Q 331.372775 187.56548 331.372775 188.472378 
L 331.372775 194.929497 
Q 331.372775 195.836396 331.871453 195.836396 
z
" clip-path="url(#pecda26b824)" style="fill: #ec407a; opacity: 0.82; stroke: #666666; stroke-width: 0.8; stroke-linejoin: miter"/>
   </g>
   <g id="text_32">
    <text style="fill: #1f1f1f; font: 9.5px 'DejaVu Sans'; text-anchor: middle" x="363.589607" y="207.579069" transform="rotate(-0 363.589607 207.579069)">x</text>
   </g>
   <g id="text_33">
    <text style="fill: #1f1f1f; font: 9.5px 'DejaVu Sans'; text-anchor: middle" x="217.576612" y="235.14879" transform="rotate(-0 217.576612 235.14879)">2</text>
   </g>
   <g id="text_34">
    <text style="fill: #1f1f1f; font: 9.5px 'DejaVu Sans'; text-anchor: middle" x="268.237398" y="193.794208" transform="rotate(-0 268.237398 193.794208)">1</text>
   </g>
   <g id="text_35">
    <text style="fill: #1f1f1f; font: 9.5px 'DejaVu Sans'; text-anchor: middle" x="343.420842" y="194.322344" transform="rotate(-0 343.420842 194.322344)">0</text>
   </g>
   <g id="text_36">
    <g id="patch_37">
     <path d="M 424.450424 244.992087 
L 467.137299 244.992087 
L 467.137299 228.406149 
L 424.450424 228.406149 
z
" style="fill: #ffffff; stroke: #bdbdbd; stroke-width: 0.8; stroke-linejoin: miter"/>
    </g>
    <text style="font: 11px 'DejaVu Sans'; text-anchor: start" x="427.420424" y="239.73443" transform="rotate(-0 427.420424 239.73443)">t = 4 s</text>
   </g>
  </g>
  <g id="axes_4">
   <g id="patch_38">
    <path d="M 40.446094 317.268 
L 499.230094 317.268 
L 499.230094 254.510609 
L 40.446094 254.510609 
z
" style="fill: #ffffff"/>
   </g>
   <g id="line2d_76">
    <path d="M 40.446094 307.836253 
L 499.230094 307.836253 
" clip-path="url(#pc047506585)" style="fill: none; stroke-dasharray: 1.1,4.95; stroke-dashoffset: 0; stroke: #d6d6d6; stroke-width: 0.55"/>
   </g>
   <g id="line2d_77">
    <path d="M 40.446094 294.051393 
L 499.230094 294.051393 
" clip-path="url(#pc047506585)" style="fill: none; stroke-dasharray: 1.1,4.95; stroke-dashoffset: 0; stroke: #d6d6d6; stroke-width: 0.55"/>
   </g>
   <g id="line2d_78">
    <path d="M 40.446094 280.266532 
L 499.230094 280.266532 
" clip-path="url(#pc047506585)" style="fill: none; stroke-dasharray: 1.1,4.95; stroke-dashoffset: 0; stroke: #d6d6d6; stroke-width: 0.55"/>
   </g>
   <g id="line2d_79">
    <path d="M 40.446094 266.481672 
L 499.230094 266.481672 
" clip-path="url(#pc047506585)" style="fill: none; stroke-dasharray: 1.1,4.95; stroke-dashoffset: 0; stroke: #d6d6d6; stroke-width: 0.55"/>
   </g>
   <g id="line2d_80">
    <path d="M 40.446094 273.374102 
L 499.230094 273.374102 
" clip-path="url(#pc047506585)" style="fill: none; stroke-dasharray: 6,6; stroke-dashoffset: 0; stroke: #bcbcbc"/>
   </g>
   <g id="line2d_81">
    <path d="M 40.446094 287.158963 
L 499.230094 287.158963 
" clip-path="url(#pc047506585)" style="fill: none; stroke-dasharray: 6,6; stroke-dashoffset: 0; stroke: #bcbcbc"/>
   </g>
   <g id="line2d_82">
    <path d="M 40.446094 300.943823 
L 499.230094 300.943823 
" clip-path="url(#pc047506585)" style="fill: none; stroke-dasharray: 6,6; stroke-dashoffset: 0; stroke: #bcbcbc"/>
   </g>
   <g id="line2d_83">
    <path d="M 40.446094 259.589242 
L 499.230094 259.589242 
" clip-path="url(#pc047506585)" style="fill: none; stroke: #000000; stroke-width: 1.45; stroke-linecap: square"/>
   </g>
   <g id="line2d_84">
    <path d="M 40.446094 314.728684 
L 499.230094 314.728684 
" clip-path="url(#pc047506585)" style="fill: none; stroke: #000000; stroke-width: 1.45; stroke-linecap: square"/>
   </g>
   <g id="matplotlib.axis_7">
    <g id="xtick_16">
     <g id="line2d_85">
      <path d="M 56.403798 317.268 
L 56.403798 254.510609 
" clip-path="url(#pc047506585)" style="fill: none; stroke: #dddddd; stroke-opacity: 0.8; stroke-width: 0.55; stroke-linecap: square"/>
     </g>
     <g id="line2d_86">
      <g>
       <use xlink:href="#m0bee2536da" x="56.403798" y="317.268" style="stroke: #000000; stroke-width: 0.6"/>
      </g>
     </g>
    </g>
    <g id="xtick_17">
     <g id="line2d_87">
      <path d="M 156.13945 317.268 
L 156.13945 254.510609 
" clip-path="url(#pc047506585)" style="fill: none; stroke: #dddddd; stroke-opacity: 0.8; stroke-width: 0.55; stroke-linecap: square"/>
     </g>
     <g id="line2d_88">
      <g>
       <use xlink:href="#m0bee2536da" x="156.13945" y="317.268" style="stroke: #000000; stroke-width: 0.6"/>
      </g>
     </g>
    </g>
    <g id="xtick_18">
     <g id="line2d_89">
      <path d="M 255.875102 317.268 
L 255.875102 254.510609 
" clip-path="url(#pc047506585)" style="fill: none; stroke: #dddddd; stroke-opacity: 0.8; stroke-width: 0.55; stroke-linecap: square"/>
     </g>
     <g id="line2d_90">
      <g>
       <use xlink:href="#m0bee2536da" x="255.875102" y="317.268" style="stroke: #000000; stroke-width: 0.6"/>
      </g>
     </g>
    </g>
    <g id="xtick_19">
     <g id="line2d_91">
      <path d="M 355.610755 317.268 
L 355.610755 254.510609 
" clip-path="url(#pc047506585)" style="fill: none; stroke: #dddddd; stroke-opacity: 0.8; stroke-width: 0.55; stroke-linecap: square"/>
     </g>
     <g id="line2d_92">
      <g>
       <use xlink:href="#m0bee2536da" x="355.610755" y="317.268" style="stroke: #000000; stroke-width: 0.6"/>
      </g>
     </g>
    </g>
    <g id="xtick_20">
     <g id="line2d_93">
      <path d="M 455.346407 317.268 
L 455.346407 254.510609 
" clip-path="url(#pc047506585)" style="fill: none; stroke: #dddddd; stroke-opacity: 0.8; stroke-width: 0.55; stroke-linecap: square"/>
     </g>
     <g id="line2d_94">
      <g>
       <use xlink:href="#m0bee2536da" x="455.346407" y="317.268" style="stroke: #000000; stroke-width: 0.6"/>
      </g>
     </g>
    </g>
    <g id="text_37">
     <text style="font: 11px 'DejaVu Sans'; text-anchor: middle" x="269.838094" y="335.926281" transform="rotate(-0 269.838094 335.926281)">x [m]</text>
    </g>
   </g>
   <g id="matplotlib.axis_8">
    <g id="ytick_13">
     <g id="line2d_95">
      <g>
       <use xlink:href="#me11f80140e" x="40.446094" y="314.365924" style="stroke: #000000; stroke-width: 0.6"/>
      </g>
     </g>
     <g id="text_38">
      <text style="font: 9px 'DejaVu Sans'; text-anchor: end" x="34.146094" y="317.785221" transform="rotate(-0 34.146094 317.785221)">−5</text>
     </g>
    </g>
    <g id="ytick_14">
     <g id="line2d_96">
      <g>
       <use xlink:href="#me11f80140e" x="40.446094" y="296.22795" style="stroke: #000000; stroke-width: 0.6"/>
      </g>
     </g>
     <g id="text_39">
      <text style="font: 9px 'DejaVu Sans'; text-anchor: end" x="34.146094" y="299.647247" transform="rotate(-0 34.146094 299.647247)">0</text>
     </g>
    </g>
    <g id="ytick_15">
     <g id="line2d_97">
      <g>
       <use xlink:href="#me11f80140e" x="40.446094" y="278.089975" style="stroke: #000000; stroke-width: 0.6"/>
      </g>
     </g>
     <g id="text_40">
      <text style="font: 9px 'DejaVu Sans'; text-anchor: end" x="34.146094" y="281.509272" transform="rotate(-0 34.146094 281.509272)">5</text>
     </g>
    </g>
    <g id="ytick_16">
     <g id="line2d_98">
      <g>
       <use xlink:href="#me11f80140e" x="40.446094" y="259.952001" style="stroke: #000000; stroke-width: 0.6"/>
      </g>
     </g>
     <g id="text_41">
      <text style="font: 9px 'DejaVu Sans'; text-anchor: end" x="34.146094" y="263.371298" transform="rotate(-0 34.146094 263.371298)">10</text>
     </g>
    </g>
    <g id="text_42">
     <text style="font: 10px 'DejaVu Sans'; text-anchor: middle" x="14.798438" y="285.889304" transform="rotate(-90 14.798438 285.889304)">y [m]</text>
    </g>
   </g>
   <g id="patch_39">
    <path d="M 351.242333 298.186851 
L 374.34111 298.186851 
Q 374.839788 298.186851 374.839788 297.279952 
L 374.839788 290.822833 
Q 374.839788 289.915935 374.34111 289.915935 
L 351.242333 289.915935 
Q 350.743655 289.915935 350.743655 290.822833 
L 350.743655 297.279952 
Q 350.743655 298.186851 351.242333 298.186851 
z
" clip-path="url(#pc047506585)" style="fill: #7fc6a4; opacity: 0.7; stroke: #667078; stroke-width: 0.8; stroke-linejoin: miter"/>
   </g>
   <g id="patch_40">
    <path d="M 459.754723 311.971711 
L 482.8535 311.971711 
Q 483.352178 311.971711 483.352178 311.064813 
L 483.352178 304.607694 
Q 483.352178 303.700795 482.8535 303.700795 
L 459.754723 303.700795 
Q 459.256044 303.700795 459.256044 304.607694 
L 459.256044 311.064813 
Q 459.256044 311.971711 459.754723 311.971711 
z
" clip-path="url(#pc047506585)" style="fill: #b39ddb; opacity: 0.7; stroke: #667078; stroke-width: 0.8; stroke-linejoin: miter"/>
   </g>
   <g id="patch_41">
    <path d="M 40.446094 317.268 
L 40.446094 254.510609 
" style="fill: none; stroke: #444444; stroke-width: 0.55; stroke-linejoin: miter; stroke-linecap: square"/>
   </g>
   <g id="patch_42">
    <path d="M 499.230094 317.268 
L 499.230094 254.510609 
" style="fill: none; stroke: #444444; stroke-width: 0.55; stroke-linejoin: miter; stroke-linecap: square"/>
   </g>
   <g id="patch_43">
    <path d="M 40.446094 317.268 
L 499.230094 317.268 
" style="fill: none; stroke: #444444; stroke-width: 0.55; stroke-linejoin: miter; stroke-linecap: square"/>
   </g>
   <g id="patch_44">
    <path d="M 40.446094 254.510609 
L 499.230094 254.510609 
" style="fill: none; stroke: #444444; stroke-width: 0.55; stroke-linejoin: miter; stroke-linecap: square"/>
   </g>
   <g id="text_43">
    <text style="fill: #1f1f1f; font: 9.5px 'DejaVu Sans'; text-anchor: middle" x="362.791722" y="296.672799" transform="rotate(-0 362.791722 296.672799)">4</text>
   </g>
   <g id="text_44">
    <text style="fill: #1f1f1f; font: 9.5px 'DejaVu Sans'; text-anchor: middle" x="471.304111" y="310.45766" transform="rotate(-0 471.304111 310.45766)">5</text>
   </g>
   <g id="line2d_99">
    <path d="M 86.324494 280.266532 
L 89.743897 280.266532 
L 93.162679 280.266532 
L 96.580249 280.266532 
L 99.996047 280.266532 
L 103.409543 280.266532 
L 106.820236 280.266532 
L 110.227658 280.266532 
L 113.631366 280.266532 
L 117.030948 280.266532 
L 120.426019 280.266532 
L 123.816222 280.266532 
L 127.201225 280.266532 
L 130.580724 280.266532 
L 133.954441 280.266532 
L 137.322122 280.266532 
L 140.683538 280.266532 
L 144.038484 280.266532 
L 147.386779 280.266532 
L 150.728265 280.266532 
L 154.062807 280.266532 
L 157.390289 280.266532 
L 160.710621 280.266532 
L 164.02373 280.266532 
L 167.329565 280.266532 
L 170.628095 280.266532 
L 173.919308 280.266532 
L 177.203209 280.266532 
L 180.479824 280.266532 
L 183.749194 280.266532 
L 187.01138 280.266532 
L 190.266456 280.266532 
L 193.514515 280.266532 
L 196.755664 280.266532 
L 199.990025 280.266532 
L 203.217733 280.266532 
L 206.438941 280.266532 
L 209.65381 280.266532 
L 212.862518 280.266532 
L 216.065253 280.266532 
L 219.262215 280.266532 
L 222.453614 280.266532 
L 225.639674 280.266532 
L 228.820625 280.266532 
L 231.996709 280.266532 
L 235.168177 280.266532 
L 238.335286 280.266532 
L 241.498303 280.266532 
L 244.657502 280.266532 
L 247.813164 280.266532 
L 250.965574 280.266532 
L 254.115027 280.266284 
L 257.261818 280.25757 
L 260.406251 280.224307 
L 263.548632 280.152906 
L 266.68927 280.03272 
L 269.828479 279.855847 
L 272.966573 279.616934 
L 276.103869 279.312977 
L 279.240687 278.943126 
L 282.377344 278.508486 
L 285.514162 278.011925 
L 288.651458 277.457869 
L 291.789552 276.852113 
L 294.928761 276.201619 
L 298.069399 275.51432 
L 301.21178 274.798923 
L 304.356213 274.064713 
L 307.503004 273.321354 
L 310.652457 272.578695 
L 313.804867 271.846569 
L 316.960529 271.1346 
L 320.119728 270.452001 
L 323.282745 269.807383 
L 326.449854 269.208553 
L 329.621322 268.66232 
L 332.797406 268.174295 
L 335.978357 267.748698 
L 339.164417 267.388158 
L 342.355816 267.093514 
L 345.552778 266.863626 
L 348.755513 266.695166 
L 351.964221 266.582433 
L 355.17909 266.517148 
L 358.400298 266.488259 
L 361.628006 266.481746 
L 364.862367 266.481672 
L 368.103516 266.481672 
L 371.351575 266.481672 
L 374.606651 266.481672 
L 377.868837 266.481672 
L 381.138207 266.481672 
L 384.414822 266.481672 
L 387.698723 266.481672 
L 390.989936 266.481672 
L 394.288466 266.481672 
L 397.594301 266.481672 
L 400.90741 266.481672 
L 404.227742 266.481672 
L 407.555224 266.481672 
L 410.889766 266.481672 
L 414.231252 266.481672 
L 417.579547 266.481672 
L 420.934493 266.481672 
L 424.295909 266.481672 
L 427.66359 266.481672 
L 431.037307 266.481672 
L 434.416806 266.481672 
L 437.801809 266.481672 
L 441.192012 266.481672 
L 444.587083 266.481672 
L 447.986665 266.481672 
L 451.390373 266.481672 
L 454.797795 266.481672 
L 458.208488 266.481672 
L 461.621984 266.481672 
L 465.037782 266.481672 
L 468.455352 266.481672 
L 471.874134 266.481672 
L 475.293537 266.481672 
" clip-path="url(#pc047506585)" style="fill: none; stroke-dasharray: 4.8,4.8; stroke-dashoffset: 0; stroke: #ec407a; stroke-opacity: 0.58; stroke-width: 1.2"/>
   </g>
   <g id="line2d_100">
    <path d="M 172.097155 266.481672 
L 173.706101 266.481672 
L 175.313669 266.481672 
L 176.918543 266.481672 
L 178.519478 266.481672 
L 180.115297 266.481672 
L 181.70489 266.481672 
L 183.287211 266.481672 
L 184.861281 266.481672 
L 186.426181 266.481672 
L 187.981056 266.481672 
L 189.525113 266.481672 
L 191.057616 266.481672 
L 192.577888 266.481672 
L 194.08531 266.481672 
L 195.579318 266.481672 
L 197.059405 266.481672 
L 198.525114 266.481672 
L 199.976044 266.481672 
L 201.411843 266.481672 
L 202.832208 266.481672 
L 204.236887 266.481672 
L 205.625675 266.481672 
L 206.998413 266.481672 
L 208.354987 266.481672 
L 209.695327 266.481672 
L 211.019406 266.481672 
L 212.327238 266.481672 
L 213.618878 266.481672 
L 214.894419 266.481672 
L 216.153994 266.481672 
L 217.39777 266.481672 
L 218.625952 266.481672 
L 219.838779 266.481672 
L 221.03652 266.481672 
L 222.21948 266.481672 
L 223.387992 266.481672 
L 224.54242 266.481672 
L 225.683155 266.481672 
L 226.810617 266.481672 
L 227.92525 266.481672 
L 229.027523 266.481672 
L 230.117928 266.481672 
L 231.196982 266.481672 
L 232.265221 266.481672 
L 233.323199 266.481672 
L 234.371493 266.481672 
L 235.410693 266.481672 
L 236.441409 266.481672 
L 237.464264 266.481672 
L 238.479894 266.481672 
L 239.488951 266.481672 
L 240.492094 266.481672 
L 241.489997 266.481672 
L 242.483339 266.481672 
L 243.472808 266.481672 
L 244.459101 266.481672 
L 245.442916 266.481672 
L 246.42496 266.481672 
L 247.405938 266.481672 
L 248.386562 266.481672 
L 249.367541 266.481672 
L 250.349584 266.481672 
L 251.3334 266.481672 
L 252.319692 266.481672 
L 253.309162 266.481672 
L 254.302504 266.481672 
L 255.300406 266.481672 
L 256.30355 266.481672 
L 257.312606 266.481672 
L 258.328237 266.481672 
L 259.351091 266.481672 
L 260.381807 266.481672 
L 261.421008 266.481672 
L 262.469301 266.481672 
L 263.52728 266.481672 
L 264.595518 266.481672 
L 265.674572 266.481672 
L 266.764978 266.481672 
L 267.867251 266.481672 
L 268.981883 266.481672 
L 270.109345 266.481672 
L 271.250081 266.481672 
L 272.404509 266.481672 
L 273.573021 266.481672 
L 274.755981 266.481672 
L 275.953722 266.481672 
L 277.166548 266.481672 
L 278.39473 266.481672 
L 279.638507 266.481672 
L 280.898082 266.481672 
L 282.173623 266.481672 
L 283.465263 266.481672 
L 284.773095 266.481672 
L 286.097174 266.481672 
L 287.437513 266.481672 
L 288.794087 266.481672 
L 290.166825 266.481672 
L 291.555613 266.481672 
L 292.960293 266.481672 
L 294.380658 266.481672 
L 295.816456 266.481672 
L 297.267386 266.481672 
L 298.733096 266.481672 
L 300.213182 266.481672 
L 301.707191 266.481672 
L 303.214613 266.481672 
L 304.734885 266.481672 
L 306.267388 266.481672 
L 307.811444 266.481672 
L 309.36632 266.481672 
L 310.93122 266.481672 
L 312.505289 266.481672 
L 314.08761 266.481672 
L 315.677203 266.481672 
L 317.273022 266.481672 
L 318.873958 266.481672 
L 320.478832 266.481672 
L 322.086399 266.481672 
L 323.695346 266.481672 
" clip-path="url(#pc047506585)" style="fill: none; stroke-dasharray: 4.8,4.8; stroke-dashoffset: 0; stroke: #45a9df; stroke-opacity: 0.58; stroke-width: 1.2"/>
   </g>
   <g id="line2d_101">
    <path d="M 56.403798 307.836253 
L 58.435388 307.836253 
L 60.466978 307.836253 
L 62.498568 307.836253 
L 64.530158 307.836253 
L 66.561749 307.836253 
L 68.593339 307.836253 
L 70.624929 307.836253 
L 72.656519 307.836253 
L 74.688109 307.836253 
L 76.719699 307.836253 
L 78.751289 307.836253 
L 80.782879 307.836253 
L 82.814469 307.836253 
L 84.846059 307.836253 
L 86.877649 307.836253 
L 88.90924 307.836253 
L 90.94083 307.836253 
L 92.97242 307.836253 
L 95.00401 307.836253 
L 97.0356 307.836253 
L 99.06719 307.836253 
L 101.09878 307.836253 
L 103.13037 307.836253 
L 105.16196 307.836253 
L 107.19355 307.836253 
L 109.22514 307.836253 
L 111.256731 307.836253 
L 113.288321 307.836253 
L 115.319911 307.836253 
L 117.351501 307.836253 
L 119.383091 307.836253 
L 121.414681 307.836253 
L 123.446271 307.836253 
L 125.477861 307.836253 
L 127.509451 307.836253 
L 129.541041 307.836253 
L 131.572631 307.836253 
L 133.604222 307.836253 
L 135.635812 307.836253 
L 137.667402 307.836253 
L 139.698992 307.836253 
L 141.730582 307.836253 
L 143.762172 307.836253 
L 145.793762 307.836253 
L 147.825352 307.836253 
L 149.856942 307.836253 
L 151.888532 307.836253 
L 153.920122 307.836253 
L 155.951713 307.836253 
L 157.983303 307.836253 
L 160.014893 307.836253 
L 162.046483 307.836253 
L 164.078073 307.836253 
L 166.109663 307.836253 
L 168.141253 307.836253 
L 170.172843 307.836253 
L 172.204433 307.836253 
L 174.236023 307.836253 
L 176.267613 307.836253 
L 178.299204 307.836253 
L 180.330794 307.836253 
L 182.362384 307.836253 
L 184.393974 307.836253 
L 186.425564 307.836253 
L 188.457154 307.836253 
L 190.488744 307.836253 
L 192.520334 307.836253 
L 194.551924 307.836253 
L 196.583514 307.836253 
L 198.615104 307.836253 
L 200.646695 307.836253 
L 202.678285 307.836253 
L 204.709875 307.836253 
L 206.741465 307.836253 
L 208.773055 307.836253 
L 210.804645 307.836253 
L 212.836235 307.836253 
L 214.867825 307.836253 
L 216.899415 307.836253 
L 218.931005 307.836253 
L 220.962595 307.836253 
L 222.994186 307.836253 
L 225.025776 307.836253 
L 227.057366 307.836253 
L 229.088956 307.836253 
L 231.120546 307.836253 
L 233.152136 307.836253 
L 235.183726 307.836253 
L 237.215316 307.836253 
L 239.246906 307.836253 
L 241.278496 307.836253 
L 243.310087 307.836253 
L 245.341677 307.836253 
L 247.373267 307.836253 
L 249.404857 307.836253 
L 251.436447 307.836253 
L 253.468037 307.836253 
L 255.499627 307.836253 
L 257.531217 307.836253 
L 259.562807 307.836253 
L 261.594397 307.836253 
L 263.625987 307.836253 
L 265.657578 307.836253 
L 267.689168 307.836253 
L 269.720758 307.836253 
L 271.752348 307.836253 
L 273.783938 307.836253 
L 275.815528 307.836253 
L 277.847118 307.836253 
L 279.878708 307.836253 
L 281.910298 307.836253 
L 283.941888 307.836253 
L 285.973478 307.836253 
L 288.005069 307.836253 
L 290.036659 307.836253 
L 292.068249 307.836253 
L 294.099839 307.836253 
L 296.131429 307.836253 
L 298.163019 307.836253 
" clip-path="url(#pc047506585)" style="fill: none; stroke-dasharray: 4.8,4.8; stroke-dashoffset: 0; stroke: #f29b72; stroke-opacity: 0.58; stroke-width: 1.2"/>
   </g>
   <g id="patch_45">
    <path d="M 352.040218 284.40199 
L 375.138995 284.40199 
Q 375.637674 284.40199 375.637674 283.495092 
L 375.637674 277.037973 
Q 375.637674 276.131074 375.138995 276.131074 
L 352.040218 276.131074 
Q 351.54154 276.131074 351.54154 277.037973 
L 351.54154 283.495092 
Q 351.54154 284.40199 352.040218 284.40199 
z
" clip-path="url(#pc047506585)" style="fill: #ffd22e; opacity: 0.82; stroke: #666666; stroke-width: 0.8; stroke-linejoin: miter"/>
   </g>
   <g id="patch_46">
    <path d="M 286.61363 311.971711 
L 309.712407 311.971711 
Q 310.211086 311.971711 310.211086 311.064813 
L 310.211086 304.607694 
Q 310.211086 303.700795 309.712407 303.700795 
L 286.61363 303.700795 
Q 286.114952 303.700795 286.114952 304.607694 
L 286.114952 311.064813 
Q 286.114952 311.971711 286.61363 311.971711 
z
" clip-path="url(#pc047506585)" style="fill: #f29b72; opacity: 0.82; stroke: #666666; stroke-width: 0.8; stroke-linejoin: miter"/>
   </g>
   <g id="patch_47">
    <path d="M 312.145957 270.61713 
L 335.244734 270.61713 
Q 335.743413 270.61713 335.743413 269.710231 
L 335.743413 263.253112 
Q 335.743413 262.346214 335.244734 262.346214 
L 312.145957 262.346214 
Q 311.647279 262.346214 311.647279 263.253112 
L 311.647279 269.710231 
Q 311.647279 270.61713 312.145957 270.61713 
z
" clip-path="url(#pc047506585)" style="fill: #45a9df; opacity: 0.82; stroke: #666666; stroke-width: 0.8; stroke-linejoin: miter"/>
   </g>
   <g id="patch_48">
    <path d="M 463.744149 270.61713 
L 486.842926 270.61713 
Q 487.341604 270.61713 487.341604 269.710231 
L 487.341604 263.253112 
Q 487.341604 262.346214 486.842926 262.346214 
L 463.744149 262.346214 
Q 463.24547 262.346214 463.24547 263.253112 
L 463.24547 269.710231 
Q 463.24547 270.61713 463.744149 270.61713 
z
" clip-path="url(#pc047506585)" style="fill: #ec407a; opacity: 0.82; stroke: #666666; stroke-width: 0.8; stroke-linejoin: miter"/>
   </g>
   <g id="text_45">
    <text style="fill: #1f1f1f; font: 9.5px 'DejaVu Sans'; text-anchor: middle" x="363.589607" y="282.887939" transform="rotate(-0 363.589607 282.887939)">x</text>
   </g>
   <g id="text_46">
    <text style="fill: #1f1f1f; font: 9.5px 'DejaVu Sans'; text-anchor: middle" x="298.163019" y="310.45766" transform="rotate(-0 298.163019 310.45766)">2</text>
   </g>
   <g id="text_47">
    <text style="fill: #1f1f1f; font: 9.5px 'DejaVu Sans'; text-anchor: middle" x="323.695346" y="269.103078" transform="rotate(-0 323.695346 269.103078)">1</text>
   </g>
   <g id="text_48">
    <text style="fill: #1f1f1f; font: 9.5px 'DejaVu Sans'; text-anchor: middle" x="475.293537" y="269.103078" transform="rotate(-0 475.293537 269.103078)">0</text>
   </g>
   <g id="text_49">
    <g id="patch_49">
     <path d="M 424.450424 320.300956 
L 467.137299 320.300956 
L 467.137299 303.715019 
L 424.450424 303.715019 
z
" style="fill: #ffffff; stroke: #bdbdbd; stroke-width: 0.8; stroke-linejoin: miter"/>
    </g>
    <text style="font: 11px 'DejaVu Sans'; text-anchor: start" x="427.420424" y="315.0433" transform="rotate(-0 427.420424 315.0433)">t = 6 s</text>
   </g>
  </g>
  <g id="text_50">
   <!-- Conservative NPC interaction ($\theta \approx 75^\circ$) -->
   <g transform="translate(123.031094 15.938203)">
    <text>
     <tspan style="font: 700 11.5px 'DejaVu Sans'" x="0 8.439697 16.340332 24.527344 31.372314 39.171875 44.843262 52.3396 60.099854 65.597168 69.539062 77.0354 84.834961 88.838623 98.463135 106.891602 115.331299 119.334961 123.276855 131.463867 136.961182 144.760742 150.432129 158.192383 165.009277 170.506592 174.448486 182.349121 190.536133 194.539795 244.200293" y="-0.78125">Conservative NPC interaction ()</tspan>
     <tspan style="font: oblique 11.5px 'DejaVu Sans'" x="199.795654" y="-0.78125">θ</tspan>
     <tspan style="font: 11.5px 'DejaVu Sans'" x="209.072021 220.948242 228.264893" y="-0.78125">≈75</tspan>
     <tspan style="font: 8.05px 'DejaVu Sans'" x="237.264722" y="-5.375">∘</tspan>
    </text>
   </g>
  </g>
  <g id="legend_1">
   <g id="patch_50">
    <path d="M 50.505297 354.071469 
L 67.705297 354.071469 
L 67.705297 348.051469 
L 50.505297 348.051469 
z
" style="fill: #ec407a; stroke: #666666; stroke-linejoin: miter"/>
   </g>
   <g id="text_51">
    <text style="font: 8.6px 'DejaVu Sans'; text-anchor: start" x="74.585297" y="354.071469" transform="rotate(-0 74.585297 354.071469)">0: ego vehicle</text>
   </g>
   <g id="patch_51">
    <path d="M 152.264797 354.071469 
L 169.464797 354.071469 
L 169.464797 348.051469 
L 152.264797 348.051469 
z
" style="fill: #45a9df; stroke: #666666; stroke-linejoin: miter"/>
   </g>
   <g id="text_52">
    <text style="font: 8.6px 'DejaVu Sans'; text-anchor: start" x="176.344797" y="354.071469" transform="rotate(-0 176.344797 354.071469)">1: decision NPC</text>
   </g>
   <g id="patch_52">
    <path d="M 260.455484 354.071469 
L 277.655484 354.071469 
L 277.655484 348.051469 
L 260.455484 348.051469 
z
" style="fill: #f29b72; stroke: #666666; stroke-linejoin: miter"/>
   </g>
   <g id="text_53">
    <text style="font: 8.6px 'DejaVu Sans'; text-anchor: start" x="284.535484" y="354.071469" transform="rotate(-0 284.535484 354.071469)">2: surrounding NPC</text>
   </g>
   <g id="patch_53">
    <path d="M 384.773859 354.071469 
L 401.973859 354.071469 
L 401.973859 348.051469 
L 384.773859 348.051469 
z
" style="fill: #ffd22e; stroke: #666666; stroke-linejoin: miter"/>
   </g>
   <g id="text_54">
    <text style="font: 8.6px 'DejaVu Sans'; text-anchor: start" x="408.853859" y="354.071469" transform="rotate(-0 408.853859 354.071469)">obstacle</text>
   </g>
  </g>
 </g>
 <defs>
  <clipPath id="p2da2271724">
   <rect x="40.446094" y="28.584" width="458.784" height="62.757391"/>
  </clipPath>
  <clipPath id="pc493ce05ba">
   <rect x="40.446094" y="103.89287" width="458.784" height="62.757391"/>
  </clipPath>
  <clipPath id="pecda26b824">
   <rect x="40.446094" y="179.201739" width="458.784" height="62.757391"/>
  </clipPath>
  <clipPath id="pc047506585">
   <rect x="40.446094" y="254.510609" width="458.784" height="62.757391"/>
  </clipPath>
 </defs>
</svg>
